<?xml version="1.0" encoding="UTF-8" standalone="no"?>
<!-- Created with Inkscape (http://www.inkscape.org/) -->

<svg
   version="1.1"
   id="svg1"
   width="167.03998"
   height="101.10431"
   viewBox="0 0 167.03998 101.10431"
   xmlns="http://www.w3.org/2000/svg"
   xmlns:svg="http://www.w3.org/2000/svg">
  <defs
     id="defs1" />
  <g
     id="g1"
     transform="translate(-81.93022,-113.50644)">
    <g
       id="g5"
       transform="translate(-0.40255527,-5.2332186)">
      <path
         style="fill:#8b38bc"
         d="m 193.21278,219.81908 -0.96,-0.0249 -1.00538,-0.23974 -1.00538,-0.23975 -1.08681,-0.67169 -1.08681,-0.67168 -0.70781,-1.25938 -0.70781,-1.25938 v -1.08863 -1.08862 l 0.72,-1.42781 0.72,-1.4278 1.53892,-0.76308 1.53893,-0.76307 3.66107,-0.16156 3.66108,-0.16156 v -0.29126 -0.29126 l -0.47649,-0.92143 -0.4765,-0.92143 -0.5635,-0.16561 -0.56351,-0.16562 -1.17302,-0.20761 -1.17302,-0.20762 -1.86698,0.5408 -1.86698,0.5408 -0.40774,0.33535 -0.40773,0.33536 -0.0959,-0.1256 -0.0959,-0.1256 -0.6751,-0.97952 -0.67509,-0.97952 -0.21648,-0.86252 -0.21648,-0.86253 1.8752,-0.86449 1.87521,-0.8645 3.68,-0.0135 3.68,-0.0135 1.28,0.69069 1.28,0.69069 0.86718,0.91344 0.86719,0.91344 0.50074,1.95458 0.50073,1.95458 -0.0879,5.40129 -0.0879,5.40129 h -2.4 -2.4 l -0.10297,-0.72544 -0.10297,-0.72543 -0.88902,0.63303 -0.88901,0.63303 -1.40802,0.32458 -1.40801,0.32458 z m 1.44134,-3.79942 h 1.31044 l 0.95785,-0.49533 0.95786,-0.49533 0.30625,-0.8055 0.30626,-0.80551 v -0.59104 -0.59104 l -1.25329,-0.21174 -1.25328,-0.21174 -1.50946,0.22636 -1.50946,0.22635 -0.59726,0.59726 -0.59725,0.59726 v 0.49454 0.49455 l 0.78545,0.78545 0.78545,0.78546 z m -105.828577,3.52 h -6.492768 v -11.65654 -11.65654 l 0.522901,-0.10346 0.522901,-0.10346 7.077099,0.16118 7.077102,0.16119 1.84715,0.93424 1.847162,0.93424 1.2594,1.07801 1.25941,1.078 1.05344,2.13953 1.05344,2.13952 v 3.20704 3.20705 l -0.71326,1.54544 -0.71326,1.54544 -0.9819,1.23974 -0.9819,1.23975 -1.68253,0.96265 -1.682552,0.96265 -1.88953,0.49216 -1.889536,0.49217 z m 2.867232,-4.80703 3.6,-0.007 1.282745,-0.58274 1.282748,-0.58274 1.01057,-1.15097 1.01057,-1.15098 0.356552,-1.7175 0.35655,-1.7175 -0.36627,-1.74176 -0.366272,-1.74175 -1.50881,-1.46822 -1.50881,-1.46822 -1.476489,-0.37178 -1.476489,-0.37178 h -2.898297 -2.898298 v 7.04 7.04 z m 21.120005,4.73997 -2.64,0.0929 v -9.14584 -9.14589 l 2.64,0.0929 2.64,0.093 v 8.96 8.96 z m 10.48,0.0671 h -2.56 v -12.48 -12.48 h 2.55376 2.55376 l 0.0862,6.95914 0.0862,6.95914 3.65625,-3.43914 3.65624,-3.43914 h 3.21875 3.21875 l -3.7902,3.8001 -3.79021,3.80011 1.09993,1.23989 1.09994,1.2399 2.93527,3.73005 2.93528,3.73005 v 0.18995 0.18995 h -3.17448 -3.17448 l -2.80513,-3.52674 -2.80513,-3.52674 -1.22039,1.19168 -1.22039,1.19168 v 2.33506 2.33506 z m 22.08,0 h -2.56 v -12.48 -12.48 h 2.50969 2.50969 l 0.21209,5.87109 0.21209,5.8711 -0.20178,1.0089 -0.20178,1.00887 h 0.23164 0.23164 l 3.5313,-3.36 3.53129,-3.36 3.23706,0.0125 3.23707,0.0125 -3.78145,3.67471 -3.78144,3.67471 0.58144,0.75617 0.58145,0.75616 3.2,4.09669 3.2,4.09669 0.2559,0.41994 0.2559,0.41995 h -3.17285 -3.17285 l -2.66515,-3.44 -2.66516,-3.44 -0.10377,-0.13921 -0.10377,-0.13921 -1.27413,1.24415 -1.27412,1.24415 v 2.33506 2.33506 z m 22.06995,0 h -2.57004 l -0.15393,-0.40114 -0.15393,-0.40114 0.084,-11.99886 0.084,-11.99886 2.64,-0.093 2.64,-0.0929 v 4.28345 4.28345 l 1.84,-0.93885 1.84,-0.93886 2.28617,0.13812 2.28617,0.13811 1.42843,0.83712 1.42843,0.83712 0.50345,0.76835 0.50344,0.76835 0.50973,1.75341 0.50973,1.7534 -0.0878,5.57136 -0.0878,5.57136 -2.62008,0.0926 -2.62008,0.0926 -0.0999,-5.92613 -0.0999,-5.92613 -0.84744,-0.84665 -0.84744,-0.84665 -1.23256,-0.0321 -1.23256,-0.0321 -1.05687,0.43805 -1.05687,0.43805 -0.62313,1.22145 -0.62317,1.22148 v 5.13275 5.13275 z m 50.77406,-0.0676 -2.76401,0.0925 0.008,-0.41246 0.008,-0.41245 2.25873,-4.96 2.25872,-4.96 2.73389,-6.32 2.73388,-6.32 h 2.80539 2.80538 l 0.16358,0.4 0.16358,0.4 4.99065,11.16004 4.99066,11.16004 v 0.11996 0.11996 h -2.8431 -2.84311 l -1.05793,-2.4073 -1.05793,-2.40729 -5.44451,0.0873 -5.4445,0.0873 -0.85043,2.24 -0.85044,2.24 z m 10.22264,-9.21244 h 3.38667 l -0.10667,-0.27748 -0.10667,-0.27748 -1.6,-3.71669 -1.6,-3.71669 -0.18394,-0.006 -0.18394,-0.006 -1.49606,3.76512 -1.49605,3.76512 v 0.23488 0.23488 z m 18.21333,9.28 h -2.72 v -11.88187 -11.88187 l 1.2,0.19834 1.2,0.19835 1.52,0.004 1.52,0.004 v 11.68 11.68 z m -133.52564,-20.55946 -1.64497,0.15806 -0.97469,-0.97469 -0.97468,-0.97468 v -1.00923 -1.00923 l 0.93538,-0.93539 0.93539,-0.93538 h 1.47916 1.47916 l 0.78545,0.78545 0.78546,0.78546 v 1.25909 1.25909 l -0.58034,0.7167 -0.58035,0.71669 z m 51.84566,-18.49702 -0.24,-0.0165 -3.04,-1.68531 -3.04,-1.68531 -8.64,-4.73201 -8.64,-4.73201 -0.72,-0.45358 -0.72,-0.45359 v -23.99259 -23.99262 h 0.19571 0.19571 l 8.52429,4.3697 8.52429,4.36971 2.56,1.32832 2.56,1.32832 0.85286,0.561 0.85287,0.561 0.50713,1.26745 0.50714,1.26745 v 2.66393 2.66393 l -0.64,0.57919 -0.64,0.57919 v 2.9904 2.99041 h -1.056 -1.056 l -0.384,-0.384 -0.384,-0.384 v -1.83712 -1.83711 l -0.2516,-0.1555 -0.25159,-0.15549 -1.58841,0.85661 -1.5884,0.85661 -0.2026,2.08 -0.2026,2.08 -0.0374,3.94103 -0.0374,3.94104 0.31324,0.58531 0.31325,0.5853 0.99833,0.34802 0.99833,0.34802 0.57118,-0.30569 0.57119,-0.30569 0.21101,-1.12478 0.21101,-1.12479 0.60519,-0.32388 0.60519,-0.32389 h 0.82104 0.82104 l 0.002,2.32 0.002,2.32 0.63579,0.96 0.63578,0.96 0.002,3.6 0.002,3.6 h -0.41699 -0.41699 l -3.66301,-1.94154 -3.66301,-1.94154 -3.28427,-1.81784 -3.28428,-1.81785 0.0843,-10.35479 0.0843,-10.35479 3.2,-1.72107 3.2,-1.72107 0.32,-0.14618 0.32,-0.14619 -0.62491,-0.41857 -0.6249,-0.41857 -4.6551,-2.47488 -4.65509,-2.47488 -0.24,-0.005 -0.24,-0.005 v 16.76156 16.76157 l 6.8,3.54347 6.8,3.54346 0.0984,-1.26503 0.0988,-1.26527 h 0.15434 0.15435 l 1.34725,0.68178 1.34726,0.68179 0.88,0.62 0.88,0.62001 v 5.09821 5.09821 z m 2.4,-0.3055 -0.24,0.002 v -5.11643 -5.11643 l 2.5284,-1.27126 2.5284,-1.27125 0.20139,0.8024 0.20139,0.8024 -0.18868,0.30528 -0.18867,0.30529 0.19886,0.32177 0.19887,0.32178 1.34002,-0.76709 1.34002,-0.76709 5.4234,-2.76476 5.4234,-2.76475 0.10761,-0.10761 0.10761,-0.10761 -0.0163,-16.741 -0.0164,-16.74099 -0.14467,-0.14467 -0.14467,-0.14468 -0.75979,0.49784 -0.7598,0.49784 -4.45019,2.3039 -4.45019,2.3039 -0.27677,0.25438 -0.27677,0.25437 1.07677,0.54005 1.07677,0.54004 2.64435,1.46689 2.64435,1.46689 -0.0844,10.2603 -0.0844,10.2603 -7.36,3.73653 -7.36,3.73653 -0.24,0.0235 -0.24,0.0235 v -3.83263 -3.83262 l 0.78705,-0.51569 0.78704,-0.5157 0.093,-2.45168 0.093,-2.45168 0.9083,-0.10399 0.90829,-0.10398 0.61171,0.55358 0.6117,0.55358 v 1.0704 1.07041 h 0.97589 0.97589 l 0.95083,-0.4917 0.95084,-0.49169 -0.0867,-6.30831 -0.0867,-6.3083 -1.70152,-0.91182 -1.70151,-0.91182 -0.19855,0.19855 -0.19856,0.19856 -0.1412,1.99326 -0.14121,1.99327 -0.35872,0.2351 -0.35873,0.2351 -0.88,0.005 -0.88,0.005 v -2.2 -2.2 l -0.19269,-0.96342 -0.19268,-0.96342 -0.79382,-0.42484 -0.79381,-0.42483 0.1065,-3.41908 0.1065,-3.41908 0.61499,-0.67863 0.61499,-0.67863 11.92504,-5.98734 11.92504,-5.98733 0.17998,0.17998 0.17999,0.17999 0.0255,23.77181 0.0255,23.77181 -0.26551,0.2425 -0.2655,0.2425 -6.08,3.1959 -6.08,3.1959 -5.44,2.82326 -5.44,2.82325 -0.8,0.41788 -0.8,0.41787 z"
         id="path5" />
    </g>
  </g>
</svg>
